<svg xmlns="http://www.w3.org/2000/svg" width="860" height="145" viewBox="0 0 860 145" role="img">
  <style>
    text { font-family: "Segoe UI", Ubuntu, "Helvetica Neue", Helvetica, Arial, sans-serif; }
    .card { fill: #0D1117; stroke: #30363D; }
    .val { fill: #E6EDF3; }
    .key { fill: #7D8590; }
    .head { fill: #58A6FF; }
    .rule { stroke: #30363D; }
    .track { fill: #21262D; }
  </style>
  <rect class="card" x="0.5" y="0.5" width="859.0" height="144.0" rx="10"/>
  <g transform="translate(28.0,24.0)">
  <clipPath id="round"><rect x="0" y="0" width="804.0" height="14" rx="7.0"/></clipPath>
  <rect class="track" x="0" y="0" width="804.0" height="14" rx="7.0"/>
  <g clip-path="url(#round)">
    <rect x="0.00" y="0" width="248.19" height="14" fill="#3178C6"/>
    <rect x="248.19" y="0" width="198.39" height="14" fill="#3572A5"/>
    <rect x="446.58" y="0" width="151.00" height="14" fill="#FF5D01"/>
    <rect x="597.58" y="0" width="82.73" height="14" fill="#A97BFF"/>
    <rect x="680.31" y="0" width="64.26" height="14" fill="#E34C26"/>
    <rect x="744.56" y="0" width="45.78" height="14" fill="#663399"/>
    <rect x="790.35" y="0" width="9.64" height="14" fill="#F1E05A"/>
    <rect x="799.98" y="0" width="1.61" height="14" fill="#89E051"/>
    <rect x="801.59" y="0" width="2.41" height="14" fill="#8B949E"/>
  </g>
  <circle cx="6.0" cy="42.0" r="6" fill="#3178C6"/>
  <text class="val" x="20.0" y="47.0" font-size="13" font-weight="600">TypeScript</text>
  <text class="key" x="94.9" y="47.0" font-size="13">30.9%</text>
  <circle cx="274.0" cy="42.0" r="6" fill="#3572A5"/>
  <text class="val" x="288.0" y="47.0" font-size="13" font-weight="600">Python</text>
  <text class="key" x="337.4" y="47.0" font-size="13">24.7%</text>
  <circle cx="542.0" cy="42.0" r="6" fill="#FF5D01"/>
  <text class="val" x="556.0" y="47.0" font-size="13" font-weight="600">Astro</text>
  <text class="key" x="595.0" y="47.0" font-size="13">18.8%</text>
  <circle cx="6.0" cy="66.0" r="6" fill="#A97BFF"/>
  <text class="val" x="20.0" y="71.0" font-size="13" font-weight="600">Kotlin</text>
  <text class="key" x="63.7" y="71.0" font-size="13">10.3%</text>
  <circle cx="274.0" cy="66.0" r="6" fill="#E34C26"/>
  <text class="val" x="288.0" y="71.0" font-size="13" font-weight="600">HTML</text>
  <text class="key" x="331.7" y="71.0" font-size="13">8.0%</text>
  <circle cx="542.0" cy="66.0" r="6" fill="#663399"/>
  <text class="val" x="556.0" y="71.0" font-size="13" font-weight="600">CSS</text>
  <text class="key" x="587.7" y="71.0" font-size="13">5.7%</text>
  <circle cx="6.0" cy="90.0" r="6" fill="#F1E05A"/>
  <text class="val" x="20.0" y="95.0" font-size="13" font-weight="600">JavaScript</text>
  <text class="key" x="94.9" y="95.0" font-size="13">1.2%</text>
  <circle cx="274.0" cy="90.0" r="6" fill="#89E051"/>
  <text class="val" x="288.0" y="95.0" font-size="13" font-weight="600">Shell</text>
  <text class="key" x="327.0" y="95.0" font-size="13">0.2%</text>
  <circle cx="542.0" cy="90.0" r="6" fill="#8B949E"/>
  <text class="val" x="556.0" y="95.0" font-size="13" font-weight="600">Otros</text>
  <text class="key" x="595.0" y="95.0" font-size="13">0.3%</text>
  </g>
</svg>
