<svg xmlns="http://www.w3.org/2000/svg" width="860" height="356" viewBox="0 0 860 356" role="img">
  <style>
    text { font-family: "Segoe UI", Ubuntu, "Helvetica Neue", Helvetica, Arial, sans-serif; }
    .card { fill: #0D1117; stroke: #30363D; }
    .val { fill: #E6EDF3; }
    .key { fill: #7D8590; }
    .head { fill: #58A6FF; }
    .rule { stroke: #30363D; }
    .track { fill: #21262D; }
  </style>
  <rect class="card" x="0.5" y="0.5" width="859.0" height="355.0" rx="10"/>
  <g transform="translate(28.0,24.0)">
  <rect x="0.0" y="0.0" width="394.0" height="146.0" rx="6" fill="#161B22" stroke="#30363D" stroke-width="1"/>
  <a href="https://github.com/ByFlopp/LosSimpsons_PMC">
    <text class="head" x="14.0" y="29.0" font-size="16" font-weight="700">LosSimpsons_PMC</text>
  </a>
  <text class="key" x="14.0" y="50.0" font-size="11">Modelo Perceptrón Multicapa para reconocimiento de</text>
  <text class="key" x="14.0" y="66.0" font-size="11">personajes de los Simpsons</text>
  <rect x="14.0" y="96.0" width="97.8" height="20" rx="4" fill="#DA5B0B"/>
  <text x="62.9" y="110.0" font-size="11" font-weight="600" fill="#FFFFFF" text-anchor="middle">Jupyter Notebook</text>
  <rect x="117.8" y="96.0" width="66.4" height="20" rx="4" fill="#012456"/>
  <text x="151.0" y="110.0" font-size="11" font-weight="600" fill="#FFFFFF" text-anchor="middle">PowerShell</text>
  <rect x="190.2" y="96.0" width="43.4" height="20" rx="4" fill="#3572A5"/>
  <text x="211.9" y="110.0" font-size="11" font-weight="600" fill="#FFFFFF" text-anchor="middle">Python</text>
  <text class="key" x="380.0" y="110.0" font-size="13" text-anchor="end"></text>
  <rect x="410.0" y="0.0" width="394.0" height="146.0" rx="6" fill="#161B22" stroke="#30363D" stroke-width="1"/>
  <a href="https://github.com/DiegoPyLL/Hackathon-Huawei-Cloud-MaaS">
    <text class="head" x="424.0" y="29.0" font-size="16" font-weight="700">Hackathon-Huawei-Cloud-MaaS</text>
  </a>
  <text class="key" x="424.0" y="50.0" font-size="11">Agente inteligente de respuesta a incidentes desarrollado para</text>
  <text class="key" x="424.0" y="66.0" font-size="11">el Incident Response Hackathon de Huawei Cloud, utilizando</text>
  <text class="key" x="424.0" y="82.0" font-size="11">MaaS de Kostra.</text>
  <rect x="424.0" y="112.0" width="66.4" height="20" rx="4" fill="#012456"/>
  <text x="457.2" y="126.0" font-size="11" font-weight="600" fill="#FFFFFF" text-anchor="middle">PowerShell</text>
  <rect x="496.4" y="112.0" width="60.0" height="20" rx="4" fill="#384D54"/>
  <text x="526.4" y="126.0" font-size="11" font-weight="600" fill="#FFFFFF" text-anchor="middle">Dockerfile</text>
  <rect x="562.4" y="112.0" width="43.4" height="20" rx="4" fill="#3572A5"/>
  <text x="584.1" y="126.0" font-size="11" font-weight="600" fill="#FFFFFF" text-anchor="middle">Python</text>
  <text class="key" x="790.0" y="126.0" font-size="13" text-anchor="end">⭐ 4</text>
  <rect x="0.0" y="162.0" width="394.0" height="146.0" rx="6" fill="#161B22" stroke="#30363D" stroke-width="1"/>
  <a href="https://github.com/VolutusDevelopment/VolutusLandingPage">
    <text class="head" x="14.0" y="191.0" font-size="16" font-weight="700">VolutusLandingPage</text>
  </a>
  <rect x="14.0" y="212.0" width="39.0" height="20" rx="4" fill="#E34C26"/>
  <text x="33.5" y="226.0" font-size="11" font-weight="600" fill="#FFFFFF" text-anchor="middle">HTML</text>
  <rect x="59.0" y="212.0" width="63.0" height="20" rx="4" fill="#F1E05A"/>
  <text x="90.5" y="226.0" font-size="11" font-weight="600" fill="#0D1117" text-anchor="middle">JavaScript</text>
  <rect x="128.0" y="212.0" width="29.8" height="20" rx="4" fill="#663399"/>
  <text x="142.9" y="226.0" font-size="11" font-weight="600" fill="#FFFFFF" text-anchor="middle">CSS</text>
  <text class="key" x="380.0" y="226.0" font-size="13" text-anchor="end"></text>
  <rect x="410.0" y="162.0" width="394.0" height="146.0" rx="6" fill="#161B22" stroke="#30363D" stroke-width="1"/>
  <a href="https://github.com/DiegoPyLL/CarFlip">
    <text class="head" x="424.0" y="191.0" font-size="16" font-weight="700">CarFlip</text>
  </a>
  <text class="key" x="424.0" y="212.0" font-size="11">Plataforma Chilena que recopila publicaciones de vehiculos</text>
  <text class="key" x="424.0" y="228.0" font-size="11">usados y los muestra en un portal. Normaliza los datos y los</text>
  <text class="key" x="424.0" y="244.0" font-size="11">categoriza con IA para asignarle la etiqueta de "Deal"</text>
  <rect x="424.0" y="274.0" width="43.4" height="20" rx="4" fill="#3572A5"/>
  <text x="445.7" y="288.0" font-size="11" font-weight="600" fill="#FFFFFF" text-anchor="middle">Python</text>
  <rect x="473.4" y="274.0" width="36.6" height="20" rx="4" fill="#6E7681"/>
  <text x="491.7" y="288.0" font-size="11" font-weight="600" fill="#FFFFFF" text-anchor="middle">Mako</text>
  <rect x="516.0" y="274.0" width="63.0" height="20" rx="4" fill="#F1E05A"/>
  <text x="547.5" y="288.0" font-size="11" font-weight="600" fill="#0D1117" text-anchor="middle">JavaScript</text>
  <text class="key" x="790.0" y="288.0" font-size="13" text-anchor="end"></text>
  </g>
</svg>
